# xmcd
#
# Track frame offsets: 
#        150
#        13274
#        25921
#        41824
#        58353
#        82705
#        103022
#        116210
#        131338
#        152086
#        172264
#        185104
#
# Disc length: 2766 seconds
#
# Revision: 0
# Processed by: cddbd v1.5.2PL0 Copyright (c) Steve Scherf et al.
# Submitted via: ExactAudioCopy v1.0b3
#
DISCID=a80acc0c
DTITLE=Dina and CO - Dziesmas no vecmaminas dziesmu klades
DYEAR=2000
DGENRE=Folk/Rock
TTITLE0=Tur es dzeru
TTITLE1=Meita gaja uz avotu
TTITLE2=Ligo dziesmas
TTITLE3=Jauns un traks
TTITLE4=Tev
TTITLE5=Ak vai cik zel
TTITLE6=Ugunskurs
TTITLE7=Es nenacu sai vieta'i
TTITLE8=Lauj lai matu cirtas krit
TTITLE9=Jauniba
TTITLE10=Matei meita
TTITLE11=Put vejini
EXTD=
EXTT0=
EXTT1=
EXTT2=
EXTT3=
EXTT4=
EXTT5=
EXTT6=
EXTT7=
EXTT8=
EXTT9=
EXTT10=
EXTT11=
PLAYORDER=
